<mxfile host="app.diagrams.net" agent="Mozilla/5.0 (Windows NT 10.0; Win64; x64) AppleWebKit/537.36 (KHTML, like Gecko) Chrome/124.0.0.0 Safari/537.36 SLBrowser/9.0.5.8121 SLBChan/111 SLBVPV/64-bit" version="24.8.6">
  <diagram id="6a731a19-8d31-9384-78a2-239565b7b9f0" name="Page-1">
    <mxGraphModel dx="2751" dy="942" grid="1" gridSize="10" guides="1" tooltips="1" connect="1" arrows="1" fold="1" page="1" pageScale="1" pageWidth="1169" pageHeight="827" background="none" math="0" shadow="0">
      <root>
        <mxCell id="0" />
        <mxCell id="1" parent="0" />
        <mxCell id="1750" value="" style="edgeStyle=none;rounded=1;jumpStyle=none;html=1;shadow=0;labelBackgroundColor=none;startArrow=none;startFill=0;jettySize=auto;orthogonalLoop=1;strokeColor=#E85642;strokeWidth=3;fontFamily=Helvetica;fontSize=14;fontColor=#FFFFFF;spacing=5;fontStyle=1;fillColor=#b0e3e6;" parent="1" edge="1">
          <mxGeometry relative="1" as="geometry">
            <mxPoint x="290" y="580" as="sourcePoint" />
            <mxPoint x="289.23" y="644.5" as="targetPoint" />
            <Array as="points" />
          </mxGeometry>
        </mxCell>
        <mxCell id="1753" value="&lt;font style=&quot;font-size: 18px;&quot;&gt;校内美食&lt;/font&gt;" style="rounded=1;whiteSpace=wrap;html=1;shadow=0;labelBackgroundColor=none;strokeColor=none;strokeWidth=3;fillColor=#e85642;fontFamily=Helvetica;fontSize=14;fontColor=#FFFFFF;align=center;spacing=5;fontStyle=1;arcSize=7;perimeterSpacing=2;" parent="1" vertex="1">
          <mxGeometry x="217.5" y="100" width="150" height="60" as="geometry" />
        </mxCell>
        <mxCell id="1756" value="&lt;font style=&quot;font-size: 16px;&quot;&gt;菜品&lt;/font&gt;" style="rounded=1;whiteSpace=wrap;html=1;shadow=0;labelBackgroundColor=none;strokeColor=none;strokeWidth=3;fillColor=#f08e81;fontFamily=Helvetica;fontSize=14;fontColor=#FFFFFF;align=center;spacing=5;fontStyle=0;arcSize=7;perimeterSpacing=2;" parent="1" vertex="1">
          <mxGeometry x="225" y="644.5" width="130" height="60" as="geometry" />
        </mxCell>
        <mxCell id="1760" value="&lt;font style=&quot;font-size: 17px;&quot;&gt;点评&lt;/font&gt;" style="rounded=1;whiteSpace=wrap;html=1;shadow=0;labelBackgroundColor=none;strokeColor=none;strokeWidth=3;fillColor=#1699d3;fontFamily=Helvetica;fontSize=14;fontColor=#FFFFFF;align=center;spacing=5;fontStyle=1;arcSize=7;perimeterSpacing=2;" parent="1" vertex="1">
          <mxGeometry x="-30" y="640" width="130" height="60" as="geometry" />
        </mxCell>
        <mxCell id="3EGEGjM4T-hzFkaTamQp-1779" value="&lt;font style=&quot;font-size: 16px;&quot;&gt;窗口&lt;/font&gt;" style="rounded=1;whiteSpace=wrap;html=1;shadow=0;labelBackgroundColor=none;strokeColor=none;strokeWidth=3;fillColor=#f08e81;fontFamily=Helvetica;fontSize=14;fontColor=#FFFFFF;align=center;spacing=5;fontStyle=0;arcSize=7;perimeterSpacing=2;" vertex="1" parent="1">
          <mxGeometry x="225" y="511" width="135" height="59.5" as="geometry" />
        </mxCell>
        <mxCell id="3EGEGjM4T-hzFkaTamQp-1782" value="" style="edgeStyle=none;rounded=1;jumpStyle=none;html=1;shadow=0;labelBackgroundColor=none;startArrow=none;startFill=0;jettySize=auto;orthogonalLoop=1;strokeColor=#E85642;strokeWidth=3;fontFamily=Helvetica;fontSize=14;fontColor=#FFFFFF;spacing=5;fontStyle=1;fillColor=#b0e3e6;" edge="1" parent="1">
          <mxGeometry relative="1" as="geometry">
            <mxPoint x="289.23" y="445.5" as="sourcePoint" />
            <mxPoint x="289.23" y="505.5" as="targetPoint" />
          </mxGeometry>
        </mxCell>
        <mxCell id="3EGEGjM4T-hzFkaTamQp-1795" value="" style="endArrow=none;html=1;rounded=0;" edge="1" parent="1">
          <mxGeometry width="50" height="50" relative="1" as="geometry">
            <mxPoint x="-60" y="760.5" as="sourcePoint" />
            <mxPoint x="-10" y="710.5" as="targetPoint" />
          </mxGeometry>
        </mxCell>
        <mxCell id="3EGEGjM4T-hzFkaTamQp-1796" value="" style="endArrow=none;html=1;rounded=0;" edge="1" parent="1">
          <mxGeometry width="50" height="50" relative="1" as="geometry">
            <mxPoint y="790" as="sourcePoint" />
            <mxPoint x="20" y="710.5" as="targetPoint" />
          </mxGeometry>
        </mxCell>
        <mxCell id="3EGEGjM4T-hzFkaTamQp-1797" value="" style="endArrow=none;html=1;rounded=0;" edge="1" parent="1">
          <mxGeometry width="50" height="50" relative="1" as="geometry">
            <mxPoint x="60" y="790" as="sourcePoint" />
            <mxPoint x="40" y="710.5" as="targetPoint" />
          </mxGeometry>
        </mxCell>
        <mxCell id="3EGEGjM4T-hzFkaTamQp-1798" value="" style="endArrow=none;html=1;rounded=0;entryX=0.75;entryY=1;entryDx=0;entryDy=0;" edge="1" parent="1">
          <mxGeometry width="50" height="50" relative="1" as="geometry">
            <mxPoint x="121.5" y="768.5" as="sourcePoint" />
            <mxPoint x="80.00000000000045" y="710.5" as="targetPoint" />
          </mxGeometry>
        </mxCell>
        <mxCell id="3EGEGjM4T-hzFkaTamQp-1799" value="&lt;font style=&quot;font-size: 16px;&quot;&gt;菜品名&lt;/font&gt;" style="ellipse;whiteSpace=wrap;html=1;fillColor=#2DBEE2;strokeColor=#006EAF;fontColor=#ffffff;" vertex="1" parent="1">
          <mxGeometry x="-140" y="757" width="90" height="70" as="geometry" />
        </mxCell>
        <mxCell id="3EGEGjM4T-hzFkaTamQp-1800" value="&lt;span style=&quot;font-size: 16px;&quot;&gt;图片&lt;/span&gt;" style="ellipse;whiteSpace=wrap;html=1;fillColor=#2DBEE2;strokeColor=#006EAF;fontColor=#ffffff;" vertex="1" parent="1">
          <mxGeometry x="-70" y="810" width="90" height="70" as="geometry" />
        </mxCell>
        <mxCell id="3EGEGjM4T-hzFkaTamQp-1801" value="&lt;span style=&quot;font-size: 16px;&quot;&gt;点评&lt;/span&gt;" style="ellipse;whiteSpace=wrap;html=1;fillColor=#2DBEE2;strokeColor=#006EAF;fontColor=#ffffff;" vertex="1" parent="1">
          <mxGeometry x="30" y="810" width="90" height="70" as="geometry" />
        </mxCell>
        <mxCell id="3EGEGjM4T-hzFkaTamQp-1802" value="&lt;span style=&quot;font-size: 16px;&quot;&gt;打星&lt;/span&gt;" style="ellipse;whiteSpace=wrap;html=1;fillColor=#2DBEE2;strokeColor=#006EAF;fontColor=#ffffff;" vertex="1" parent="1">
          <mxGeometry x="120" y="760" width="90" height="70" as="geometry" />
        </mxCell>
        <mxCell id="3EGEGjM4T-hzFkaTamQp-1803" value="&lt;font style=&quot;font-size: 16px;&quot;&gt;用户&lt;/font&gt;" style="rounded=1;whiteSpace=wrap;html=1;shadow=0;labelBackgroundColor=none;strokeColor=none;strokeWidth=3;fillColor=#75C5CE;fontFamily=Helvetica;fontSize=14;fontColor=#FFFFFF;align=center;spacing=5;fontStyle=0;arcSize=7;perimeterSpacing=2;" vertex="1" parent="1">
          <mxGeometry x="-350" y="640" width="130" height="60" as="geometry" />
        </mxCell>
        <mxCell id="3EGEGjM4T-hzFkaTamQp-1804" value="" style="endArrow=none;html=1;rounded=0;" edge="1" parent="1">
          <mxGeometry width="50" height="50" relative="1" as="geometry">
            <mxPoint x="-230" y="620.5" as="sourcePoint" />
            <mxPoint x="-190" y="550" as="targetPoint" />
          </mxGeometry>
        </mxCell>
        <mxCell id="3EGEGjM4T-hzFkaTamQp-1805" value="" style="endArrow=none;html=1;rounded=0;" edge="1" parent="1">
          <mxGeometry width="50" height="50" relative="1" as="geometry">
            <mxPoint x="-270" y="620" as="sourcePoint" />
            <mxPoint x="-260" y="540" as="targetPoint" />
          </mxGeometry>
        </mxCell>
        <mxCell id="3EGEGjM4T-hzFkaTamQp-1877" value="用户编辑" style="edgeLabel;html=1;align=center;verticalAlign=middle;resizable=0;points=[];" vertex="1" connectable="0" parent="3EGEGjM4T-hzFkaTamQp-1805">
          <mxGeometry x="0.1956" y="-2" relative="1" as="geometry">
            <mxPoint y="1" as="offset" />
          </mxGeometry>
        </mxCell>
        <mxCell id="3EGEGjM4T-hzFkaTamQp-1806" value="" style="endArrow=none;html=1;rounded=0;" edge="1" parent="1">
          <mxGeometry width="50" height="50" relative="1" as="geometry">
            <mxPoint x="-320" y="620" as="sourcePoint" />
            <mxPoint x="-330" y="540" as="targetPoint" />
          </mxGeometry>
        </mxCell>
        <mxCell id="3EGEGjM4T-hzFkaTamQp-1874" value="分配" style="edgeLabel;html=1;align=center;verticalAlign=middle;resizable=0;points=[];" vertex="1" connectable="0" parent="3EGEGjM4T-hzFkaTamQp-1806">
          <mxGeometry x="0.1886" relative="1" as="geometry">
            <mxPoint y="-1" as="offset" />
          </mxGeometry>
        </mxCell>
        <mxCell id="3EGEGjM4T-hzFkaTamQp-1807" value="" style="endArrow=none;html=1;rounded=0;" edge="1" parent="1">
          <mxGeometry width="50" height="50" relative="1" as="geometry">
            <mxPoint x="-350" y="620" as="sourcePoint" />
            <mxPoint x="-390" y="560" as="targetPoint" />
          </mxGeometry>
        </mxCell>
        <mxCell id="3EGEGjM4T-hzFkaTamQp-1878" value="用户编辑" style="edgeLabel;html=1;align=center;verticalAlign=middle;resizable=0;points=[];" vertex="1" connectable="0" parent="3EGEGjM4T-hzFkaTamQp-1807">
          <mxGeometry x="-0.0107" y="-3" relative="1" as="geometry">
            <mxPoint y="1" as="offset" />
          </mxGeometry>
        </mxCell>
        <mxCell id="3EGEGjM4T-hzFkaTamQp-1808" value="&lt;font style=&quot;font-size: 15px;&quot;&gt;用户名&lt;/font&gt;" style="ellipse;whiteSpace=wrap;html=1;fillColor=#9AC7BF;" vertex="1" parent="1">
          <mxGeometry x="-470" y="480" width="80" height="80" as="geometry" />
        </mxCell>
        <mxCell id="3EGEGjM4T-hzFkaTamQp-1809" value="&lt;font style=&quot;font-size: 16px;&quot;&gt;用户id&lt;/font&gt;" style="ellipse;whiteSpace=wrap;html=1;fillColor=#9AC7BF;" vertex="1" parent="1">
          <mxGeometry x="-380" y="450.5" width="80" height="80" as="geometry" />
        </mxCell>
        <mxCell id="3EGEGjM4T-hzFkaTamQp-1810" value="&lt;span style=&quot;font-size: 15px;&quot;&gt;个人简介&lt;/span&gt;" style="ellipse;whiteSpace=wrap;html=1;fillColor=#9AC7BF;" vertex="1" parent="1">
          <mxGeometry x="-290" y="450" width="80" height="80" as="geometry" />
        </mxCell>
        <mxCell id="3EGEGjM4T-hzFkaTamQp-1811" value="&lt;span style=&quot;font-size: 15px;&quot;&gt;个人主页&lt;/span&gt;" style="ellipse;whiteSpace=wrap;html=1;fillColor=#9AC7BF;" vertex="1" parent="1">
          <mxGeometry x="-190" y="470" width="80" height="80" as="geometry" />
        </mxCell>
        <mxCell id="3EGEGjM4T-hzFkaTamQp-1812" value="" style="endArrow=none;html=1;rounded=0;" edge="1" parent="1">
          <mxGeometry width="50" height="50" relative="1" as="geometry">
            <mxPoint x="-190" y="463.25" as="sourcePoint" />
            <mxPoint x="-230" y="380" as="targetPoint" />
          </mxGeometry>
        </mxCell>
        <mxCell id="3EGEGjM4T-hzFkaTamQp-1872" value="展示" style="edgeLabel;html=1;align=center;verticalAlign=middle;resizable=0;points=[];" vertex="1" connectable="0" parent="3EGEGjM4T-hzFkaTamQp-1812">
          <mxGeometry x="0.2072" y="-1" relative="1" as="geometry">
            <mxPoint x="1" as="offset" />
          </mxGeometry>
        </mxCell>
        <mxCell id="3EGEGjM4T-hzFkaTamQp-1817" value="" style="endArrow=none;html=1;rounded=0;" edge="1" parent="1">
          <mxGeometry width="50" height="50" relative="1" as="geometry">
            <mxPoint x="-160" y="450" as="sourcePoint" />
            <mxPoint x="-170" y="360" as="targetPoint" />
          </mxGeometry>
        </mxCell>
        <mxCell id="3EGEGjM4T-hzFkaTamQp-1870" value="收到" style="edgeLabel;html=1;align=center;verticalAlign=middle;resizable=0;points=[];" vertex="1" connectable="0" parent="3EGEGjM4T-hzFkaTamQp-1817">
          <mxGeometry x="0.1136" y="-2" relative="1" as="geometry">
            <mxPoint y="1" as="offset" />
          </mxGeometry>
        </mxCell>
        <mxCell id="3EGEGjM4T-hzFkaTamQp-1818" value="" style="endArrow=none;html=1;rounded=0;" edge="1" parent="1">
          <mxGeometry width="50" height="50" relative="1" as="geometry">
            <mxPoint x="-120" y="450" as="sourcePoint" />
            <mxPoint x="-100" y="370" as="targetPoint" />
          </mxGeometry>
        </mxCell>
        <mxCell id="3EGEGjM4T-hzFkaTamQp-1871" value="收到" style="edgeLabel;html=1;align=center;verticalAlign=middle;resizable=0;points=[];" vertex="1" connectable="0" parent="3EGEGjM4T-hzFkaTamQp-1818">
          <mxGeometry x="0.161" y="1" relative="1" as="geometry">
            <mxPoint y="-1" as="offset" />
          </mxGeometry>
        </mxCell>
        <mxCell id="3EGEGjM4T-hzFkaTamQp-1819" value="" style="endArrow=none;html=1;rounded=0;" edge="1" parent="1">
          <mxGeometry width="50" height="50" relative="1" as="geometry">
            <mxPoint x="-90" y="470" as="sourcePoint" />
            <mxPoint x="-40" y="390" as="targetPoint" />
          </mxGeometry>
        </mxCell>
        <mxCell id="3EGEGjM4T-hzFkaTamQp-1873" value="对别人的作品" style="edgeLabel;html=1;align=center;verticalAlign=middle;resizable=0;points=[];" vertex="1" connectable="0" parent="3EGEGjM4T-hzFkaTamQp-1819">
          <mxGeometry x="0.2063" relative="1" as="geometry">
            <mxPoint y="-1" as="offset" />
          </mxGeometry>
        </mxCell>
        <mxCell id="3EGEGjM4T-hzFkaTamQp-1820" value="&lt;font style=&quot;font-size: 14px;&quot;&gt;点赞&lt;/font&gt;" style="ellipse;whiteSpace=wrap;html=1;aspect=fixed;fillColor=#cdeb8b;strokeColor=#36393d;" vertex="1" parent="1">
          <mxGeometry x="-210" y="280" width="69.5" height="69.5" as="geometry" />
        </mxCell>
        <mxCell id="3EGEGjM4T-hzFkaTamQp-1821" value="&lt;font style=&quot;font-size: 14px;&quot;&gt;收藏&lt;/font&gt;" style="ellipse;whiteSpace=wrap;html=1;aspect=fixed;fillColor=#cdeb8b;strokeColor=#36393d;" vertex="1" parent="1">
          <mxGeometry x="-39.5" y="319.75" width="69.5" height="69.5" as="geometry" />
        </mxCell>
        <mxCell id="3EGEGjM4T-hzFkaTamQp-1822" value="&lt;font style=&quot;font-size: 14px;&quot;&gt;评论&lt;/font&gt;" style="ellipse;whiteSpace=wrap;html=1;aspect=fixed;fillColor=#cdeb8b;strokeColor=#36393d;" vertex="1" parent="1">
          <mxGeometry x="-119.5" y="280" width="69.5" height="69.5" as="geometry" />
        </mxCell>
        <mxCell id="3EGEGjM4T-hzFkaTamQp-1823" value="&lt;font style=&quot;font-size: 14px;&quot;&gt;我的作品&lt;/font&gt;" style="ellipse;whiteSpace=wrap;html=1;aspect=fixed;fillColor=#cdeb8b;strokeColor=#36393d;" vertex="1" parent="1">
          <mxGeometry x="-300" y="304.5" width="70" height="70" as="geometry" />
        </mxCell>
        <mxCell id="3EGEGjM4T-hzFkaTamQp-1824" value="" style="endArrow=classic;html=1;rounded=0;" edge="1" parent="1">
          <mxGeometry width="50" height="50" relative="1" as="geometry">
            <mxPoint x="110" y="673.73" as="sourcePoint" />
            <mxPoint x="210" y="673.73" as="targetPoint" />
          </mxGeometry>
        </mxCell>
        <mxCell id="3EGEGjM4T-hzFkaTamQp-1825" value="" style="endArrow=classic;html=1;rounded=0;" edge="1" parent="1">
          <mxGeometry width="50" height="50" relative="1" as="geometry">
            <mxPoint x="-180" y="669.23" as="sourcePoint" />
            <mxPoint x="-70" y="669" as="targetPoint" />
          </mxGeometry>
        </mxCell>
        <mxCell id="3EGEGjM4T-hzFkaTamQp-1826" value="&lt;font style=&quot;font-size: 15px;&quot;&gt;发布&lt;/font&gt;" style="text;html=1;align=center;verticalAlign=middle;resizable=0;points=[];autosize=1;strokeColor=none;fillColor=none;" vertex="1" parent="1">
          <mxGeometry x="-155" y="638" width="50" height="30" as="geometry" />
        </mxCell>
        <mxCell id="3EGEGjM4T-hzFkaTamQp-1827" value="&lt;font style=&quot;font-size: 15px;&quot;&gt;属于&lt;/font&gt;" style="text;html=1;align=center;verticalAlign=middle;resizable=0;points=[];autosize=1;strokeColor=none;fillColor=none;" vertex="1" parent="1">
          <mxGeometry x="140" y="640" width="50" height="30" as="geometry" />
        </mxCell>
        <mxCell id="3EGEGjM4T-hzFkaTamQp-1828" value="&lt;font style=&quot;font-size: 14px;&quot;&gt;包含&lt;/font&gt;" style="text;html=1;align=center;verticalAlign=middle;resizable=0;points=[];autosize=1;strokeColor=none;fillColor=none;" vertex="1" parent="1">
          <mxGeometry x="290" y="460" width="50" height="30" as="geometry" />
        </mxCell>
        <mxCell id="3EGEGjM4T-hzFkaTamQp-1829" value="&lt;font style=&quot;font-size: 14px;&quot;&gt;包含&lt;/font&gt;" style="text;html=1;align=center;verticalAlign=middle;resizable=0;points=[];autosize=1;strokeColor=none;fillColor=none;" vertex="1" parent="1">
          <mxGeometry x="290" y="590" width="50" height="30" as="geometry" />
        </mxCell>
        <mxCell id="3EGEGjM4T-hzFkaTamQp-1831" value="&lt;font style=&quot;font-size: 16px;&quot;&gt;食堂&lt;/font&gt;" style="rounded=1;whiteSpace=wrap;html=1;shadow=0;labelBackgroundColor=none;strokeColor=none;strokeWidth=3;fillColor=#f08e81;fontFamily=Helvetica;fontSize=14;fontColor=#FFFFFF;align=center;spacing=5;fontStyle=0;arcSize=7;perimeterSpacing=2;" vertex="1" parent="1">
          <mxGeometry x="222.5" y="375" width="135" height="59.5" as="geometry" />
        </mxCell>
        <mxCell id="3EGEGjM4T-hzFkaTamQp-1832" value="" style="edgeStyle=none;rounded=1;jumpStyle=none;html=1;shadow=0;labelBackgroundColor=none;startArrow=none;startFill=0;jettySize=auto;orthogonalLoop=1;strokeColor=#E85642;strokeWidth=3;fontFamily=Helvetica;fontSize=14;fontColor=#FFFFFF;spacing=5;fontStyle=1;fillColor=#b0e3e6;" edge="1" parent="1">
          <mxGeometry relative="1" as="geometry">
            <mxPoint x="288.47" y="313.25" as="sourcePoint" />
            <mxPoint x="287.78000000000003" y="378.25" as="targetPoint" />
            <Array as="points" />
          </mxGeometry>
        </mxCell>
        <mxCell id="3EGEGjM4T-hzFkaTamQp-1833" value="&lt;font style=&quot;font-size: 14px;&quot;&gt;包含&lt;/font&gt;" style="text;html=1;align=center;verticalAlign=middle;resizable=0;points=[];autosize=1;strokeColor=none;fillColor=none;" vertex="1" parent="1">
          <mxGeometry x="290" y="330" width="50" height="30" as="geometry" />
        </mxCell>
        <mxCell id="3EGEGjM4T-hzFkaTamQp-1841" value="&lt;span style=&quot;font-size: 16px;&quot;&gt;校区&lt;/span&gt;" style="rounded=1;whiteSpace=wrap;html=1;shadow=0;labelBackgroundColor=none;strokeColor=none;strokeWidth=3;fillColor=#f08e81;fontFamily=Helvetica;fontSize=14;fontColor=#FFFFFF;align=center;spacing=5;fontStyle=0;arcSize=7;perimeterSpacing=2;" vertex="1" parent="1">
          <mxGeometry x="220" y="245" width="135" height="59.5" as="geometry" />
        </mxCell>
        <mxCell id="3EGEGjM4T-hzFkaTamQp-1843" value="" style="edgeStyle=none;rounded=1;jumpStyle=none;html=1;shadow=0;labelBackgroundColor=none;startArrow=none;startFill=0;jettySize=auto;orthogonalLoop=1;strokeColor=#E85642;strokeWidth=3;fontFamily=Helvetica;fontSize=14;fontColor=#FFFFFF;spacing=5;fontStyle=1;fillColor=#b0e3e6;" edge="1" parent="1">
          <mxGeometry relative="1" as="geometry">
            <mxPoint x="288.95" y="170" as="sourcePoint" />
            <mxPoint x="288.18" y="234.5" as="targetPoint" />
            <Array as="points" />
          </mxGeometry>
        </mxCell>
        <mxCell id="3EGEGjM4T-hzFkaTamQp-1845" value="&lt;span style=&quot;font-size: 16px;&quot;&gt;评论区&lt;/span&gt;" style="rounded=1;whiteSpace=wrap;html=1;fillColor=#fff2cc;strokeColor=#d6b656;direction=south;" vertex="1" parent="1">
          <mxGeometry x="-400" y="300" width="50" height="49.5" as="geometry" />
        </mxCell>
        <mxCell id="3EGEGjM4T-hzFkaTamQp-1848" value="&lt;font style=&quot;font-size: 16px;&quot;&gt;日期&lt;/font&gt;" style="rounded=1;whiteSpace=wrap;html=1;fillColor=#fff2cc;strokeColor=#d6b656;" vertex="1" parent="1">
          <mxGeometry x="-400" y="360" width="50" height="50" as="geometry" />
        </mxCell>
        <mxCell id="3EGEGjM4T-hzFkaTamQp-1849" value="&lt;span style=&quot;font-size: 16px;&quot;&gt;获赞&lt;/span&gt;" style="rounded=1;whiteSpace=wrap;html=1;fillColor=#fff2cc;strokeColor=#d6b656;" vertex="1" parent="1">
          <mxGeometry x="-400" y="240" width="50" height="50" as="geometry" />
        </mxCell>
        <mxCell id="3EGEGjM4T-hzFkaTamQp-1850" value="&lt;font style=&quot;font-size: 16px;&quot;&gt;作者&lt;/font&gt;" style="rounded=1;whiteSpace=wrap;html=1;fillColor=#fff2cc;strokeColor=#d6b656;" vertex="1" parent="1">
          <mxGeometry x="-400" y="180" width="50" height="50" as="geometry" />
        </mxCell>
        <mxCell id="3EGEGjM4T-hzFkaTamQp-1857" value="" style="endArrow=classic;html=1;rounded=0;" edge="1" parent="1">
          <mxGeometry width="50" height="50" relative="1" as="geometry">
            <mxPoint x="40" y="630" as="sourcePoint" />
            <mxPoint x="-260" y="290" as="targetPoint" />
            <Array as="points">
              <mxPoint x="40" y="240" />
              <mxPoint x="-260" y="240" />
            </Array>
          </mxGeometry>
        </mxCell>
        <mxCell id="3EGEGjM4T-hzFkaTamQp-1858" value="&lt;font style=&quot;font-size: 14px;&quot;&gt;显示方式&lt;/font&gt;" style="text;html=1;align=center;verticalAlign=middle;resizable=0;points=[];autosize=1;strokeColor=none;fillColor=none;" vertex="1" parent="1">
          <mxGeometry x="-120" y="208" width="80" height="30" as="geometry" />
        </mxCell>
        <mxCell id="3EGEGjM4T-hzFkaTamQp-1859" value="" style="endArrow=none;html=1;rounded=0;" edge="1" parent="1">
          <mxGeometry width="50" height="50" relative="1" as="geometry">
            <mxPoint x="-310" y="330" as="sourcePoint" />
            <mxPoint x="-340" y="220" as="targetPoint" />
          </mxGeometry>
        </mxCell>
        <mxCell id="3EGEGjM4T-hzFkaTamQp-1860" value="" style="endArrow=none;html=1;rounded=0;" edge="1" parent="1">
          <mxGeometry width="50" height="50" relative="1" as="geometry">
            <mxPoint x="-310" y="330" as="sourcePoint" />
            <mxPoint x="-340" y="389.25" as="targetPoint" />
          </mxGeometry>
        </mxCell>
        <mxCell id="3EGEGjM4T-hzFkaTamQp-1861" value="" style="endArrow=none;html=1;rounded=0;" edge="1" parent="1">
          <mxGeometry width="50" height="50" relative="1" as="geometry">
            <mxPoint x="-310" y="330" as="sourcePoint" />
            <mxPoint x="-340" y="330" as="targetPoint" />
          </mxGeometry>
        </mxCell>
        <mxCell id="3EGEGjM4T-hzFkaTamQp-1862" value="" style="endArrow=none;html=1;rounded=0;" edge="1" parent="1">
          <mxGeometry width="50" height="50" relative="1" as="geometry">
            <mxPoint x="-310" y="330" as="sourcePoint" />
            <mxPoint x="-340" y="270" as="targetPoint" />
          </mxGeometry>
        </mxCell>
        <mxCell id="3EGEGjM4T-hzFkaTamQp-1867" value="&lt;font style=&quot;font-size: 15px;&quot;&gt;回复&lt;/font&gt;" style="rounded=1;whiteSpace=wrap;html=1;fillColor=#dae8fc;strokeColor=#6c8ebf;" vertex="1" parent="1">
          <mxGeometry x="-530" y="304.5" width="60" height="45.25" as="geometry" />
        </mxCell>
        <mxCell id="3EGEGjM4T-hzFkaTamQp-1868" value="" style="endArrow=none;html=1;rounded=0;" edge="1" parent="1">
          <mxGeometry width="50" height="50" relative="1" as="geometry">
            <mxPoint x="-460" y="330" as="sourcePoint" />
            <mxPoint x="-410" y="330" as="targetPoint" />
          </mxGeometry>
        </mxCell>
        <mxCell id="3EGEGjM4T-hzFkaTamQp-1869" value="用户交互" style="text;html=1;align=center;verticalAlign=middle;resizable=0;points=[];autosize=1;strokeColor=none;fillColor=none;" vertex="1" parent="1">
          <mxGeometry x="-470" y="300" width="70" height="30" as="geometry" />
        </mxCell>
      </root>
    </mxGraphModel>
  </diagram>
</mxfile>
